<?xml version="1.0" standalone="no"?>
<!DOCTYPE svg PUBLIC "-//W3C//DTD SVG 20010904//EN"
 "http://www.w3.org/TR/2001/REC-SVG-20010904/DTD/svg10.dtd">
<svg version="1.0" xmlns="http://www.w3.org/2000/svg"
 width="663.000000pt" height="258.000000pt" viewBox="0 0 663.000000 258.000000"
 preserveAspectRatio="xMidYMid meet">

<g transform="translate(0.000000,258.000000) scale(0.100000,-0.100000)"
fill="#000000" stroke="none">
<path d="M3757 2144 c-118 -26 -252 -99 -329 -181 l-27 -29 104 -174 c58 -96
108 -176 113 -178 6 -2 342 559 342 573 0 10 -136 3 -203 -11z"/>
<path d="M4027 2103 c-18 -29 -161 -274 -184 -315 -2 -5 145 -8 327 -8 l331 0
-27 50 c-63 116 -209 239 -341 287 -35 13 -68 23 -73 23 -6 0 -20 -17 -33 -37z"/>
<path d="M1474 2036 c-90 -17 -204 -76 -249 -129 -79 -92 -98 -239 -44 -342
48 -94 134 -140 379 -200 138 -34 185 -52 221 -86 60 -56 17 -145 -83 -169
-119 -29 -326 6 -443 75 l-42 24 -44 -95 c-48 -108 -52 -97 46 -145 83 -39
201 -68 314 -75 214 -14 387 46 478 165 91 119 73 303 -39 391 -60 48 -122 71
-317 121 -163 42 -183 50 -218 82 -35 31 -32 100 5 137 37 36 88 50 189 50 88
0 207 -31 271 -70 18 -11 34 -20 36 -20 6 0 76 179 76 194 0 17 -97 61 -180
81 -92 22 -269 28 -356 11z"/>
<path d="M2085 2028 c-3 -7 -4 -263 -3 -568 l3 -555 127 -3 128 -3 2 341 3
340 135 -163 c75 -89 202 -242 284 -340 l147 -177 105 0 104 0 0 570 0 570
-125 0 -125 0 0 -346 c0 -214 -4 -344 -10 -342 -5 2 -133 157 -285 346 l-276
342 -105 0 c-74 0 -106 -4 -109 -12z"/>
<path d="M4700 1470 l0 -570 130 0 130 0 0 155 0 155 144 0 c231 0 356 33 451
121 107 99 148 245 111 400 -36 157 -170 268 -358 299 -35 5 -186 10 -335 10
l-273 0 0 -570z m591 335 c173 -61 170 -308 -5 -360 -33 -10 -95 -15 -188 -15
l-138 0 0 195 0 195 144 0 c103 0 156 -4 187 -15z"/>
<path d="M3317 1816 c-69 -123 -97 -268 -78 -403 7 -46 14 -90 17 -98 5 -13
40 -15 215 -15 115 0 209 3 209 6 0 9 -310 526 -325 542 -10 11 -17 5 -38 -32z"/>
<path d="M4112 1692 c16 -42 334 -580 340 -574 18 20 78 155 93 212 22 79 23
254 3 320 l-14 45 -213 3 c-119 1 -211 -1 -209 -6z"/>
<path d="M3810 1533 c-36 -80 -68 -154 -72 -164 -7 -17 -2 -19 37 -19 39 0 46
3 60 30 15 29 18 30 85 30 67 0 70 -1 85 -30 14 -27 21 -30 61 -30 25 0 44 4
42 9 -1 5 -34 79 -73 165 l-69 156 -46 0 -45 -1 -65 -146z m129 10 c8 -21 16
-44 18 -50 4 -9 -7 -13 -37 -13 -30 0 -41 4 -37 13 2 6 10 29 18 50 7 20 16
37 19 37 3 0 12 -17 19 -37z"/>
<path d="M4007 1118 l-167 -291 102 6 c57 3 125 13 151 21 80 25 188 88 244
141 l54 50 -102 175 c-55 96 -104 178 -108 182 -3 4 -82 -124 -174 -284z"/>
<path d="M3300 1207 c0 -21 73 -125 126 -179 81 -83 190 -147 309 -182 17 -5
34 19 123 174 56 98 102 184 102 189 0 8 -103 11 -330 11 -260 0 -330 -3 -330
-13z"/>
<path d="M860 600 c0 -123 1 -130 20 -130 17 0 20 7 20 40 l0 40 43 0 c84 0
139 51 123 114 -11 42 -60 66 -138 66 l-68 0 0 -130z m148 78 c7 -7 12 -24 12
-38 0 -38 -18 -50 -72 -50 l-48 0 0 50 0 50 48 0 c26 0 53 -5 60 -12z"/>
<path d="M1340 600 l0 -130 25 0 c24 0 25 3 25 55 l0 55 65 0 65 0 0 -55 c0
-48 2 -55 20 -55 19 0 20 7 20 130 0 123 -1 130 -20 130 -18 0 -20 -7 -20 -55
l0 -55 -65 0 -65 0 0 55 c0 52 -1 55 -25 55 l-25 0 0 -130z"/>
<path d="M1914 716 c-48 -21 -74 -61 -74 -116 0 -56 26 -95 76 -116 75 -31
153 0 180 73 16 40 16 46 0 87 -14 36 -26 49 -60 65 -49 24 -78 26 -122 7z
m120 -52 c57 -58 17 -154 -64 -154 -30 0 -44 6 -64 31 -15 17 -26 43 -26 59 0
16 11 42 26 59 35 41 89 43 128 5z"/>
<path d="M2340 710 c0 -17 7 -20 45 -20 l45 0 0 -110 c0 -103 1 -110 20 -110
19 0 20 7 20 110 l0 110 45 0 c38 0 45 3 45 20 0 19 -7 20 -110 20 -103 0
-110 -1 -110 -20z"/>
<path d="M2874 716 c-48 -21 -74 -61 -74 -116 0 -56 26 -95 76 -116 45 -19 70
-18 120 7 34 16 46 29 60 65 16 41 16 47 0 87 -27 73 -108 105 -182 73z m120
-52 c58 -59 18 -154 -65 -154 -29 0 -43 6 -63 31 -15 17 -26 43 -26 59 0 16
11 42 26 59 35 41 89 43 128 5z"/>
<path d="M3395 716 c-53 -24 -70 -51 -70 -118 0 -55 3 -62 32 -88 41 -37 94
-47 148 -29 39 14 40 15 43 67 3 46 1 52 -17 52 -16 0 -20 -8 -23 -42 -3 -43
-3 -43 -44 -46 -60 -4 -99 30 -99 88 0 57 41 94 94 86 75 -11 84 -11 88 2 6
15 -55 42 -94 42 -15 -1 -41 -7 -58 -14z"/>
<path d="M3840 600 c0 -123 1 -130 20 -130 17 0 20 7 20 40 0 39 1 40 35 40
29 0 39 -6 61 -40 19 -28 34 -40 51 -40 l24 0 -31 45 c-29 42 -29 45 -11 54
28 16 42 64 29 102 -14 40 -58 59 -138 59 l-60 0 0 -130z m144 74 c39 -39 7
-84 -60 -84 l-44 0 0 50 0 50 44 0 c27 0 51 -6 60 -16z"/>
<path d="M4343 607 c-29 -68 -53 -126 -53 -130 0 -4 9 -7 21 -7 13 0 23 10 30
30 11 29 13 30 78 30 65 0 67 -1 78 -30 8 -21 18 -30 33 -30 26 0 26 -1 -38
145 -41 93 -52 110 -73 113 -22 2 -29 -9 -76 -121z m104 13 l21 -50 -48 0 -49
0 21 50 c11 28 24 50 27 50 4 0 17 -22 28 -50z"/>
<path d="M4810 601 c0 -124 1 -131 20 -131 17 0 20 7 20 40 l0 40 40 0 c110 0
166 77 106 147 -22 25 -31 28 -105 31 l-81 4 0 -131z m148 77 c19 -19 15 -66
-7 -78 -11 -5 -38 -10 -60 -10 l-41 0 0 50 0 50 48 0 c26 0 53 -5 60 -12z"/>
<path d="M5290 600 l0 -130 25 0 c24 0 25 3 25 55 l0 55 65 0 65 0 0 -55 c0
-48 2 -55 20 -55 19 0 20 7 20 130 0 123 -1 130 -20 130 -18 0 -20 -7 -20 -55
l0 -55 -65 0 -65 0 0 55 c0 52 -1 55 -25 55 l-25 0 0 -130z"/>
<path d="M5770 725 c0 -3 20 -41 45 -84 36 -62 45 -88 45 -124 0 -43 2 -47 25
-47 23 0 25 3 25 50 0 41 8 62 45 123 25 41 45 77 45 81 0 3 -9 6 -20 6 -13 0
-29 -18 -52 -60 -18 -33 -36 -60 -40 -60 -4 0 -22 26 -41 58 -22 38 -41 58
-55 60 -12 2 -22 1 -22 -3z"/>
</g>
</svg>
